<svg xmlns="http://www.w3.org/2000/svg" xmlns:xlink="http://www.w3.org/1999/xlink" xmlns:lucid="lucid" width="800" height="900"><g transform="translate(-140 0)" lucid:page-tab-id="0_0"><path d="M460 420h160v60H460z" stroke="#000" stroke-width="2" fill-opacity="0"/><use xlink:href="#a" transform="matrix(1,0,0,1,465,425) translate(18.574999999999996 28.6)"/><use xlink:href="#b" transform="matrix(1,0,0,1,465,425) translate(48.574999999999996 28.6)"/><use xlink:href="#c" transform="matrix(1,0,0,1,465,425) translate(84.525 28.6)"/><path d="M460 220h160v60H460z" stroke="#000" stroke-width="2" fill-opacity="0"/><use xlink:href="#d" transform="matrix(1,0,0,1,465,225) translate(11.524999999999999 17.799999999999997)"/><use xlink:href="#b" transform="matrix(1,0,0,1,465,225) translate(41.525 17.799999999999997)"/><use xlink:href="#e" transform="matrix(1,0,0,1,465,225) translate(77.475 17.799999999999997)"/><use xlink:href="#f" transform="matrix(1,0,0,1,465,225) translate(25.4 39.4)"/><use xlink:href="#c" transform="matrix(1,0,0,1,465,225) translate(77.69999999999999 39.4)"/><path d="M460 620h160v60H460z" stroke="#000" stroke-width="2" fill-opacity="0"/><use xlink:href="#g" transform="matrix(1,0,0,1,465,625) translate(29.9 17.799999999999997)"/><use xlink:href="#b" transform="matrix(1,0,0,1,465,625) translate(59.9 17.799999999999997)"/><use xlink:href="#h" transform="matrix(1,0,0,1,465,625) translate(95.85 17.799999999999997)"/><use xlink:href="#i" transform="matrix(1,0,0,1,465,625) translate(20.599999999999994 39.4)"/><path d="M760 420h160v60H760z" stroke="#000" stroke-width="2" fill-opacity="0"/><use xlink:href="#j" transform="matrix(1,0,0,1,765,425) translate(9.650000000000006 28.6)"/><use xlink:href="#b" transform="matrix(1,0,0,1,765,425) translate(39.650000000000006 28.6)"/><use xlink:href="#k" transform="matrix(1,0,0,1,765,425) translate(75.60000000000001 28.6)"/><path d="M760 220h160v60H760z" stroke="#000" stroke-width="2" fill-opacity="0"/><use xlink:href="#l" transform="matrix(1,0,0,1,765,225) translate(2.924999999999997 28.6)"/><use xlink:href="#m" transform="matrix(1,0,0,1,765,225) translate(32.925 28.6)"/><use xlink:href="#n" transform="matrix(1,0,0,1,765,225) translate(115.075 28.6)"/><path d="M160 212.6h160v74.8H160z" stroke="#000" stroke-width="2" fill-opacity="0"/><use xlink:href="#o" transform="matrix(1,0,0,1,165,217.6) translate(3.5749999999999886 25.299999999999997)"/><use xlink:href="#p" transform="matrix(1,0,0,1,165,217.6) translate(33.57499999999999 25.299999999999997)"/><use xlink:href="#q" transform="matrix(1,0,0,1,165,217.6) translate(100.52499999999999 25.299999999999997)"/><use xlink:href="#r" transform="matrix(1,0,0,1,165,217.6) translate(111.475 25.299999999999997)"/><use xlink:href="#s" transform="matrix(1,0,0,1,165,217.6) translate(32.025 46.9)"/><use xlink:href="#t" transform="matrix(1,0,0,1,165,217.6) translate(52.025 46.9)"/><use xlink:href="#u" transform="matrix(1,0,0,1,165,217.6) translate(82.025 46.9)"/><path d="M160 420h160v60H160z" stroke="#000" stroke-width="2" fill-opacity="0"/><use xlink:href="#v" transform="matrix(1,0,0,1,165,425) translate(29.025 28.6)"/><use xlink:href="#w" transform="matrix(1,0,0,1,165,425) translate(59.025 28.6)"/><path d="M160 612.6h160v74.8H160z" stroke="#000" stroke-width="2" fill-opacity="0"/><use xlink:href="#x" transform="matrix(1,0,0,1,165,617.6) translate(0.25 25.299999999999997)"/><use xlink:href="#p" transform="matrix(1,0,0,1,165,617.6) translate(28.9 25.299999999999997)"/><use xlink:href="#q" transform="matrix(1,0,0,1,165,617.6) translate(95.85 25.299999999999997)"/><use xlink:href="#y" transform="matrix(1,0,0,1,165,617.6) translate(106.8 25.299999999999997)"/><use xlink:href="#s" transform="matrix(1,0,0,1,165,617.6) translate(32.025 46.9)"/><use xlink:href="#t" transform="matrix(1,0,0,1,165,617.6) translate(52.025 46.9)"/><use xlink:href="#u" transform="matrix(1,0,0,1,165,617.6) translate(82.025 46.9)"/><path d="M760 620h160v60H760z" stroke="#000" stroke-width="2" fill-opacity="0"/><use xlink:href="#z" transform="matrix(1,0,0,1,765,625) translate(2.924999999999997 28.6)"/><use xlink:href="#m" transform="matrix(1,0,0,1,765,625) translate(32.925 28.6)"/><use xlink:href="#n" transform="matrix(1,0,0,1,765,625) translate(115.075 28.6)"/><path d="M760 20h160v60H760z" stroke="#000" stroke-width="2" fill-opacity="0"/><use xlink:href="#A" transform="matrix(1,0,0,1,765,25) translate(12.074999999999996 28.6)"/><use xlink:href="#b" transform="matrix(1,0,0,1,765,25) translate(42.074999999999996 28.6)"/><use xlink:href="#B" transform="matrix(1,0,0,1,765,25) translate(78.025 28.6)"/><path d="M760 820h160v60H760z" stroke="#000" stroke-width="2" fill-opacity="0"/><use xlink:href="#C" transform="matrix(1,0,0,1,765,825) translate(10.574999999999989 17.799999999999997)"/><use xlink:href="#b" transform="matrix(1,0,0,1,765,825) translate(40.57499999999999 17.799999999999997)"/><use xlink:href="#D" transform="matrix(1,0,0,1,765,825) translate(76.52499999999999 17.799999999999997)"/><use xlink:href="#E" transform="matrix(1,0,0,1,765,825) translate(15.124999999999993 39.4)"/><use xlink:href="#F" transform="matrix(1,0,0,1,765,825) translate(86.975 39.4)"/><path d="M639.24 450h101.52" stroke="#000" stroke-width="2" fill="none"/><path d="M638.5 454.64L624.24 450l14.26-4.64z"/><path d="M639.5 456l-18.5-6 18.5-6zm-12.03-6l10.03 3.26v-6.52zM755.76 450l-14.26 4.64v-9.28z"/><path d="M759 450l-18.5 6v-12zm-16.5 3.26l10.03-3.26-10.03-3.26z"/><path d="M639.24 250h101.52" stroke="#000" stroke-width="2" fill="none"/><path d="M638.5 254.64L624.24 250l14.26-4.64z"/><path d="M639.5 256l-18.5-6 18.5-6zm-12.03-6l10.03 3.26v-6.52zM755.76 250l-14.26 4.64v-9.28z"/><path d="M759 250l-18.5 6v-12zm-16.5 3.26l10.03-3.26-10.03-3.26z"/><path d="M740.76 650H639.24" fill="none"/><path d="M740.76 650h-3.04m-4.06 0h-6.1m-4.06 0h-6.1m-4.05 0h-6.1m-4.05 0h-6.1m-4.05 0h-6.1m-4.06 0h-6.1m-4.06 0h-6.1m-4.05 0h-6.1m-4.07 0h-6.1m-4.05 0h-3.04" stroke="#000" stroke-width="2" fill="none"/><path d="M755.76 650l-14.26 4.64v-9.28z"/><path d="M759 650l-18.5 6v-12zm-16.5 3.26l10.03-3.26-10.03-3.26zM638.5 654.64L624.24 650l14.26-4.64z"/><path d="M639.5 656l-18.5-6 18.5-6zm-12.03-6l10.03 3.26v-6.52z"/><path d="M840 299.24v101.52" stroke="#000" stroke-width="2" fill="none"/><path d="M844.64 298.5h-9.28l4.64-14.26z"/><path d="M846 299.5h-12l6-18.5zm-9.26-2h6.52L840 287.47zM840 415.76l-4.64-14.26h9.28z"/><path d="M840 419l-6-18.5h12zm-3.26-16.5l3.26 10.03 3.26-10.03z"/><path d="M840 499.24v101.52" stroke="#000" stroke-width="2" fill="none"/><path d="M844.64 498.5h-9.28l4.64-14.26z"/><path d="M846 499.5h-12l6-18.5zm-9.26-2h6.52L840 487.47zM840 615.76l-4.64-14.26h9.28z"/><path d="M840 619l-6-18.5h12zm-3.26-16.5l3.26 10.03 3.26-10.03z"/><path d="M339.24 650h101.52" fill="none"/><path d="M339.24 650h3.04m4.06 0h6.1m4.06 0h6.1m4.05 0h6.1m4.05 0h6.1m4.05 0h6.1m4.06 0h6.1m4.06 0h6.1m4.05 0h6.1m4.07 0h6.1m4.05 0h3.04" stroke="#000" stroke-width="2" fill="none"/><path d="M338.5 654.64L324.24 650l14.26-4.64z"/><path d="M339.5 656l-18.5-6 18.5-6zm-12.03-6l10.03 3.26v-6.52zM455.76 650l-14.26 4.64v-9.28z"/><path d="M459 650l-18.5 6v-12zm-16.5 3.26l10.03-3.26-10.03-3.26z"/><path d="M240 499.24v94.12" stroke="#000" stroke-width="2" fill="none"/><path d="M244.64 498.5h-9.28l4.64-14.26z"/><path d="M246 499.5h-12l6-18.5zm-9.26-2h6.52L240 487.47zM240 608.36l-4.64-14.26h9.28z"/><path d="M240 611.6l-6-18.5h12zm-3.26-16.5l3.26 10.03 3.26-10.03z"/><path d="M240 306.64v94.12" stroke="#000" stroke-width="2" fill="none"/><path d="M244.64 305.9h-9.28l4.64-14.26z"/><path d="M246 306.9h-12l6-18.5zm-9.26-2h6.52L240 294.87zM240 415.76l-4.64-14.26h9.28z"/><path d="M240 419l-6-18.5h12zm-3.26-16.5l3.26 10.03 3.26-10.03zM841 200.76h-2v-9.32h2zm0-30.92h-2v-37.67h2zm0-59.27h-2V99.24h2zM840 215.76l-4.64-14.26h9.28z"/><path d="M840 219l-6-18.5h12zm-3.26-16.5l3.26 10.03 3.26-10.03zM844.64 98.5h-9.28L840 84.24z"/><path d="M846 99.5h-12l6-18.5zm-9.26-2h6.52L840 87.47z"/><g><use xlink:href="#G" transform="matrix(1,0,0,1,828.525,110.57017315540773) translate(0 14.4)"/></g><g><use xlink:href="#H" transform="matrix(1,0,0,1,817.05,169.83664731960678) translate(0 14.4)"/></g><path d="M841 800.76h-2v-9.98h2zm0-31.58h-2v-38.92h2zm0-60.52h-2v-9.42h2zM844.64 698.5h-9.28l4.64-14.26z"/><path d="M846 699.5h-12l6-18.5zm-9.26-2h6.52L840 687.47zM840 815.76l-4.64-14.26h9.28z"/><path d="M840 819l-6-18.5h12zm-3.26-16.5l3.26 10.03 3.26-10.03z"/><g><use xlink:href="#H" transform="matrix(1,0,0,1,817.05,769.1846296652201) translate(0 14.4)"/></g><g><use xlink:href="#G" transform="matrix(1,0,0,1,828.525,708.6571666890168) translate(0 14.4)"/></g><defs><path d="M101-251c68 0 85 55 85 127S166 4 100 4C33 4 14-52 14-124c0-73 17-127 87-127zm-1 229c47 0 54-49 54-102s-4-102-53-102c-51 0-55 48-55 102 0 53 5 102 54 102" id="I"/><path d="M110-160c48 1 74 30 74 79 0 53-28 85-80 85-65 0-83-55-86-122-5-90 50-162 133-122 14 7 22 21 27 39l-31 6c-5-40-67-38-82-6-9 19-15 44-15 74 11-20 30-34 60-33zm-7 138c34 0 49-23 49-58s-16-56-50-56c-29 0-50 16-49 49 1 36 15 65 50 65" id="J"/><path d="M33-154v-36h34v36H33zM33 0v-36h34V0H33" id="K"/><g id="a"><use transform="matrix(0.05,0,0,0.05,0,0)" xlink:href="#I"/><use transform="matrix(0.05,0,0,0.05,10,0)" xlink:href="#J"/><use transform="matrix(0.05,0,0,0.05,20,0)" xlink:href="#K"/></g><path d="M127-220V0H93v-220H8v-28h204v28h-85" id="L"/><path d="M106-169C34-169 62-67 57 0H25v-261h32l-1 103c12-21 28-36 61-36 89 0 53 116 60 194h-32v-121c2-32-8-49-39-48" id="M"/><path d="M100-194c63 0 86 42 84 106H49c0 40 14 67 53 68 26 1 43-12 49-29l28 8c-11 28-37 45-77 45C44 4 14-33 15-96c1-61 26-98 85-98zm52 81c6-60-76-77-97-28-3 7-6 17-6 28h103" id="N"/><g id="b"><use transform="matrix(0.05,0,0,0.05,0,0)" xlink:href="#L"/><use transform="matrix(0.05,0,0,0.05,10.950000000000001,0)" xlink:href="#M"/><use transform="matrix(0.05,0,0,0.05,20.950000000000003,0)" xlink:href="#N"/></g><path d="M212-179c-10-28-35-45-73-45-59 0-87 40-87 99 0 60 29 101 89 101 43 0 62-24 78-52l27 14C228-24 195 4 139 4 59 4 22-46 18-125c-6-104 99-153 187-111 19 9 31 26 39 46" id="O"/><path d="M141-36C126-15 110 5 73 4 37 3 15-17 15-53c-1-64 63-63 125-63 3-35-9-54-41-54-24 1-41 7-42 31l-33-3c5-37 33-52 76-52 45 0 72 20 72 64v82c-1 20 7 32 28 27v20c-31 9-61-2-59-35zM48-53c0 20 12 33 32 33 41-3 63-29 60-74-43 2-92-5-92 41" id="P"/><path d="M115-194c53 0 69 39 70 98 0 66-23 100-70 100C84 3 66-7 56-30L54 0H23l1-261h32v101c10-23 28-34 59-34zm-8 174c40 0 45-34 45-75 0-40-5-75-45-74-42 0-51 32-51 76 0 43 10 73 51 73" id="Q"/><path d="M24-231v-30h32v30H24zM24 0v-190h32V0H24" id="R"/><path d="M117-194c89-4 53 116 60 194h-32v-121c0-31-8-49-39-48C34-167 62-67 57 0H25l-1-190h30c1 10-1 24 2 32 11-22 29-35 61-36" id="S"/><g id="c"><use transform="matrix(0.05,0,0,0.05,0,0)" xlink:href="#O"/><use transform="matrix(0.05,0,0,0.05,12.950000000000001,0)" xlink:href="#P"/><use transform="matrix(0.05,0,0,0.05,22.950000000000003,0)" xlink:href="#Q"/><use transform="matrix(0.05,0,0,0.05,32.95,0)" xlink:href="#R"/><use transform="matrix(0.05,0,0,0.05,36.900000000000006,0)" xlink:href="#S"/></g><path d="M54-142c48-35 137-8 131 61C196 18 31 33 14-55l32-4c7 23 22 37 52 37 35-1 51-22 54-58 4-55-73-65-99-34H22l8-134h141v27H59" id="T"/><g id="d"><use transform="matrix(0.05,0,0,0.05,0,0)" xlink:href="#I"/><use transform="matrix(0.05,0,0,0.05,10,0)" xlink:href="#T"/><use transform="matrix(0.05,0,0,0.05,20,0)" xlink:href="#K"/></g><path d="M185-189c-5-48-123-54-124 2 14 75 158 14 163 119 3 78-121 87-175 55-17-10-28-26-33-46l33-7c5 56 141 63 141-1 0-78-155-14-162-118-5-82 145-84 179-34 5 7 8 16 11 25" id="U"/><path d="M96-169c-40 0-48 33-48 73s9 75 48 75c24 0 41-14 43-38l32 2c-6 37-31 61-74 61-59 0-76-41-82-99-10-93 101-131 147-64 4 7 5 14 7 22l-32 3c-4-21-16-35-41-35" id="V"/><path d="M100-194c62-1 85 37 85 99 1 63-27 99-86 99S16-35 15-95c0-66 28-99 85-99zM99-20c44 1 53-31 53-75 0-43-8-75-51-75s-53 32-53 75 10 74 51 75" id="W"/><path d="M85-194c31 0 48 13 60 33l-1-100h32l1 261h-30c-2-10 0-23-3-31C134-8 116 4 85 4 32 4 16-35 15-94c0-66 23-100 70-100zm9 24c-40 0-46 34-46 75 0 40 6 74 45 74 42 0 51-32 51-76 0-42-9-74-50-73" id="X"/><g id="e"><use transform="matrix(0.05,0,0,0.05,0,0)" xlink:href="#U"/><use transform="matrix(0.05,0,0,0.05,12,0)" xlink:href="#N"/><use transform="matrix(0.05,0,0,0.05,22,0)" xlink:href="#V"/><use transform="matrix(0.05,0,0,0.05,31,0)" xlink:href="#W"/><use transform="matrix(0.05,0,0,0.05,41,0)" xlink:href="#S"/><use transform="matrix(0.05,0,0,0.05,51,0)" xlink:href="#X"/></g><path d="M30-248c87 1 191-15 191 75 0 78-77 80-158 76V0H30v-248zm33 125c57 0 124 11 124-50 0-59-68-47-124-48v98" id="Y"/><path d="M24 0v-261h32V0H24" id="Z"/><path d="M59-47c-2 24 18 29 38 22v24C64 9 27 4 27-40v-127H5v-23h24l9-43h21v43h35v23H59v120" id="aa"/><path d="M47-170H22l-4-78h33" id="ab"/><path d="M135-143c-3-34-86-38-87 0 15 53 115 12 119 90S17 21 10-45l28-5c4 36 97 45 98 0-10-56-113-15-118-90-4-57 82-63 122-42 12 7 21 19 24 35" id="ac"/><g id="f"><use transform="matrix(0.05,0,0,0.05,0,0)" xlink:href="#Y"/><use transform="matrix(0.05,0,0,0.05,12,0)" xlink:href="#R"/><use transform="matrix(0.05,0,0,0.05,15.949999999999998,0)" xlink:href="#Z"/><use transform="matrix(0.05,0,0,0.05,19.9,0)" xlink:href="#W"/><use transform="matrix(0.05,0,0,0.05,29.899999999999995,0)" xlink:href="#aa"/><use transform="matrix(0.05,0,0,0.05,34.9,0)" xlink:href="#ab"/><use transform="matrix(0.05,0,0,0.05,38.3,0)" xlink:href="#ac"/></g><path d="M64 0c3-98 48-159 88-221H18v-27h164v26C143-157 98-101 97 0H64" id="ad"/><g id="g"><use transform="matrix(0.05,0,0,0.05,0,0)" xlink:href="#I"/><use transform="matrix(0.05,0,0,0.05,10,0)" xlink:href="#ad"/><use transform="matrix(0.05,0,0,0.05,20,0)" xlink:href="#K"/></g><g id="h"><use transform="matrix(0.05,0,0,0.05,0,0)" xlink:href="#L"/><use transform="matrix(0.05,0,0,0.05,10.3,0)" xlink:href="#R"/><use transform="matrix(0.05,0,0,0.05,14.25,0)" xlink:href="#S"/></g><path d="M210-169c-67 3-38 105-44 169h-31v-121c0-29-5-50-35-48C34-165 62-65 56 0H25l-1-190h30c1 10-1 24 2 32 10-44 99-50 107 0 11-21 27-35 58-36 85-2 47 119 55 194h-31v-121c0-29-5-49-35-48" id="ae"/><path d="M115-194c55 1 70 41 70 98S169 2 115 4C84 4 66-9 55-30l1 105H24l-1-265h31l2 30c10-21 28-34 59-34zm-8 174c40 0 45-34 45-75s-6-73-45-74c-42 0-51 32-51 76 0 43 10 73 51 73" id="af"/><path d="M114-163C36-179 61-72 57 0H25l-1-190h30c1 12-1 29 2 39 6-27 23-49 58-41v29" id="ag"/><g id="i"><use transform="matrix(0.05,0,0,0.05,0,0)" xlink:href="#O"/><use transform="matrix(0.05,0,0,0.05,12.950000000000001,0)" xlink:href="#W"/><use transform="matrix(0.05,0,0,0.05,22.950000000000003,0)" xlink:href="#ae"/><use transform="matrix(0.05,0,0,0.05,37.900000000000006,0)" xlink:href="#af"/><use transform="matrix(0.05,0,0,0.05,47.900000000000006,0)" xlink:href="#P"/><use transform="matrix(0.05,0,0,0.05,57.900000000000006,0)" xlink:href="#ag"/><use transform="matrix(0.05,0,0,0.05,63.85,0)" xlink:href="#aa"/><use transform="matrix(0.05,0,0,0.05,68.85000000000001,0)" xlink:href="#ae"/><use transform="matrix(0.05,0,0,0.05,83.80000000000001,0)" xlink:href="#N"/><use transform="matrix(0.05,0,0,0.05,93.80000000000001,0)" xlink:href="#S"/><use transform="matrix(0.05,0,0,0.05,103.80000000000001,0)" xlink:href="#aa"/></g><path d="M126-127c33 6 58 20 58 59 0 88-139 92-164 29-3-8-5-16-6-25l32-3c6 27 21 44 54 44 32 0 52-15 52-46 0-38-36-46-79-43v-28c39 1 72-4 72-42 0-27-17-43-46-43-28 0-47 15-49 41l-32-3c6-42 35-63 81-64 48-1 79 21 79 65 0 36-21 52-52 59" id="ah"/><g id="j"><use transform="matrix(0.05,0,0,0.05,0,0)" xlink:href="#I"/><use transform="matrix(0.05,0,0,0.05,10,0)" xlink:href="#ah"/><use transform="matrix(0.05,0,0,0.05,20,0)" xlink:href="#K"/></g><g id="k"><use transform="matrix(0.05,0,0,0.05,0,0)" xlink:href="#O"/><use transform="matrix(0.05,0,0,0.05,12.950000000000001,0)" xlink:href="#W"/><use transform="matrix(0.05,0,0,0.05,22.950000000000003,0)" xlink:href="#ag"/><use transform="matrix(0.05,0,0,0.05,28.900000000000002,0)" xlink:href="#ag"/><use transform="matrix(0.05,0,0,0.05,34.85,0)" xlink:href="#R"/><use transform="matrix(0.05,0,0,0.05,38.800000000000004,0)" xlink:href="#X"/><use transform="matrix(0.05,0,0,0.05,48.800000000000004,0)" xlink:href="#W"/><use transform="matrix(0.05,0,0,0.05,58.800000000000004,0)" xlink:href="#ag"/></g><path d="M101-251c82-7 93 87 43 132L82-64C71-53 59-42 53-27h129V0H18c2-99 128-94 128-182 0-28-16-43-45-43s-46 15-49 41l-32-3c6-41 34-60 81-64" id="ai"/><g id="l"><use transform="matrix(0.05,0,0,0.05,0,0)" xlink:href="#I"/><use transform="matrix(0.05,0,0,0.05,10,0)" xlink:href="#ai"/><use transform="matrix(0.05,0,0,0.05,20,0)" xlink:href="#K"/></g><g id="m"><use transform="matrix(0.05,0,0,0.05,0,0)" xlink:href="#O"/><use transform="matrix(0.05,0,0,0.05,12.950000000000001,0)" xlink:href="#W"/><use transform="matrix(0.05,0,0,0.05,22.950000000000003,0)" xlink:href="#ag"/><use transform="matrix(0.05,0,0,0.05,28.900000000000002,0)" xlink:href="#ag"/><use transform="matrix(0.05,0,0,0.05,34.85,0)" xlink:href="#R"/><use transform="matrix(0.05,0,0,0.05,38.800000000000004,0)" xlink:href="#X"/><use transform="matrix(0.05,0,0,0.05,48.800000000000004,0)" xlink:href="#W"/><use transform="matrix(0.05,0,0,0.05,58.800000000000004,0)" xlink:href="#ag"/><use transform="matrix(0.05,0,0,0.05,64.75,0)" xlink:href="#ab"/><use transform="matrix(0.05,0,0,0.05,68.15,0)" xlink:href="#ac"/></g><path d="M30 0v-248h187v28H63v79h144v27H63v87h162V0H30" id="aj"/><g id="n"><use transform="matrix(0.05,0,0,0.05,0,0)" xlink:href="#aj"/><use transform="matrix(0.05,0,0,0.05,12,0)" xlink:href="#S"/><use transform="matrix(0.05,0,0,0.05,22,0)" xlink:href="#X"/></g><path d="M99-251c64 0 84 50 84 122C183-37 130 33 47-8c-14-7-20-23-25-40l30-5c6 39 69 39 84 7 9-19 16-44 16-74-10 22-31 35-62 35-49 0-73-33-73-83 0-54 28-83 82-83zm-1 141c31-1 51-18 51-49 0-36-14-67-51-67-34 0-49 23-49 58 0 34 15 58 49 58" id="ak"/><g id="o"><use transform="matrix(0.05,0,0,0.05,0,0)" xlink:href="#I"/><use transform="matrix(0.05,0,0,0.05,10,0)" xlink:href="#ak"/><use transform="matrix(0.05,0,0,0.05,20,0)" xlink:href="#K"/></g><path d="M140-251c81 0 123 46 123 126C263-46 219 4 140 4 59 4 17-45 17-125s42-126 123-126zm0 227c63 0 89-41 89-101s-29-99-89-99c-61 0-89 39-89 99S79-25 140-24" id="al"/><path d="M84 4C-5 8 30-112 23-190h32v120c0 31 7 50 39 49 72-2 45-101 50-169h31l1 190h-30c-1-10 1-25-2-33-11 22-28 36-60 37" id="am"/><g id="p"><use transform="matrix(0.05,0,0,0.05,0,0)" xlink:href="#al"/><use transform="matrix(0.05,0,0,0.05,14,0)" xlink:href="#am"/><use transform="matrix(0.05,0,0,0.05,24,0)" xlink:href="#aa"/><use transform="matrix(0.05,0,0,0.05,29,0)" xlink:href="#ac"/><use transform="matrix(0.05,0,0,0.05,38,0)" xlink:href="#R"/><use transform="matrix(0.05,0,0,0.05,41.95,0)" xlink:href="#X"/><use transform="matrix(0.05,0,0,0.05,51.95,0)" xlink:href="#N"/></g><path d="M16-82v-28h88v28H16" id="an"/><use transform="matrix(0.05,0,0,0.05,0,0)" xlink:href="#an" id="q"/><path d="M160-131c35 5 61 23 61 61C221 17 115-2 30 0v-248c76 3 177-17 177 60 0 33-19 50-47 57zm-97-11c50-1 110 9 110-42 0-47-63-36-110-37v79zm0 115c55-2 124 14 124-45 0-56-70-42-124-44v89" id="ao"/><path d="M206 0h-36l-40-164L89 0H53L-1-190h32L70-26l43-164h34l41 164 42-164h31" id="ap"/><g id="r"><use transform="matrix(0.05,0,0,0.05,0,0)" xlink:href="#ao"/><use transform="matrix(0.05,0,0,0.05,12,0)" xlink:href="#W"/><use transform="matrix(0.05,0,0,0.05,22,0)" xlink:href="#ap"/></g><path d="M101-234c-31-9-42 10-38 44h38v23H63V0H32v-167H5v-23h27c-7-52 17-82 69-68v24" id="aq"/><g id="s"><use transform="matrix(0.05,0,0,0.05,0,0)" xlink:href="#W"/><use transform="matrix(0.05,0,0,0.05,10,0)" xlink:href="#aq"/></g><g id="t"><use transform="matrix(0.05,0,0,0.05,0,0)" xlink:href="#aa"/><use transform="matrix(0.05,0,0,0.05,5,0)" xlink:href="#M"/><use transform="matrix(0.05,0,0,0.05,15,0)" xlink:href="#N"/></g><g id="u"><use transform="matrix(0.05,0,0,0.05,0,0)" xlink:href="#U"/><use transform="matrix(0.05,0,0,0.05,12,0)" xlink:href="#M"/><use transform="matrix(0.05,0,0,0.05,22,0)" xlink:href="#R"/><use transform="matrix(0.05,0,0,0.05,25.950000000000003,0)" xlink:href="#af"/></g><path d="M27 0v-27h64v-190l-56 39v-29l58-41h29v221h61V0H27" id="ar"/><g id="v"><use transform="matrix(0.05,0,0,0.05,0,0)" xlink:href="#ar"/><use transform="matrix(0.05,0,0,0.05,10,0)" xlink:href="#I"/><use transform="matrix(0.05,0,0,0.05,20,0)" xlink:href="#K"/></g><g id="w"><use transform="matrix(0.05,0,0,0.05,0,0)" xlink:href="#al"/><use transform="matrix(0.05,0,0,0.05,14,0)" xlink:href="#am"/><use transform="matrix(0.05,0,0,0.05,24,0)" xlink:href="#aa"/><use transform="matrix(0.05,0,0,0.05,29,0)" xlink:href="#ac"/><use transform="matrix(0.05,0,0,0.05,38,0)" xlink:href="#R"/><use transform="matrix(0.05,0,0,0.05,41.95,0)" xlink:href="#X"/><use transform="matrix(0.05,0,0,0.05,51.95,0)" xlink:href="#N"/></g><g id="x"><use transform="matrix(0.05,0,0,0.05,0,0)" xlink:href="#ar"/><use transform="matrix(0.05,0,0,0.05,8.65,0)" xlink:href="#ar"/><use transform="matrix(0.05,0,0,0.05,18.65,0)" xlink:href="#K"/></g><g id="y"><use transform="matrix(0.05,0,0,0.05,0,0)" xlink:href="#U"/><use transform="matrix(0.05,0,0,0.05,12,0)" xlink:href="#aa"/><use transform="matrix(0.05,0,0,0.05,17,0)" xlink:href="#N"/><use transform="matrix(0.05,0,0,0.05,27,0)" xlink:href="#ag"/><use transform="matrix(0.05,0,0,0.05,32.95,0)" xlink:href="#S"/></g><path d="M155-56V0h-30v-56H8v-25l114-167h33v167h35v25h-35zm-30-156c-27 46-58 90-88 131h88v-131" id="as"/><g id="z"><use transform="matrix(0.05,0,0,0.05,0,0)" xlink:href="#I"/><use transform="matrix(0.05,0,0,0.05,10,0)" xlink:href="#as"/><use transform="matrix(0.05,0,0,0.05,20,0)" xlink:href="#K"/></g><g id="A"><use transform="matrix(0.05,0,0,0.05,0,0)" xlink:href="#I"/><use transform="matrix(0.05,0,0,0.05,10,0)" xlink:href="#ar"/><use transform="matrix(0.05,0,0,0.05,20,0)" xlink:href="#K"/></g><path d="M143 0L79-87 56-68V0H24v-261h32v163l83-92h37l-77 82L181 0h-38" id="at"/><g id="B"><use transform="matrix(0.05,0,0,0.05,0,0)" xlink:href="#O"/><use transform="matrix(0.05,0,0,0.05,12.950000000000001,0)" xlink:href="#W"/><use transform="matrix(0.05,0,0,0.05,22.950000000000003,0)" xlink:href="#V"/><use transform="matrix(0.05,0,0,0.05,31.950000000000003,0)" xlink:href="#at"/><use transform="matrix(0.05,0,0,0.05,40.95,0)" xlink:href="#af"/><use transform="matrix(0.05,0,0,0.05,50.95,0)" xlink:href="#R"/><use transform="matrix(0.05,0,0,0.05,54.900000000000006,0)" xlink:href="#aa"/></g><path d="M134-131c28 9 52 24 51 62-1 50-34 73-85 73S17-19 16-69c0-36 21-54 49-61-75-25-45-126 34-121 46 3 78 18 79 63 0 33-17 51-44 57zm-34-11c31 1 46-15 46-44 0-28-17-43-47-42-29 0-46 13-45 42 1 28 16 44 46 44zm1 122c35 0 51-18 51-52 0-30-18-46-53-46-33 0-51 17-51 47 0 34 19 51 53 51" id="au"/><g id="C"><use transform="matrix(0.05,0,0,0.05,0,0)" xlink:href="#I"/><use transform="matrix(0.05,0,0,0.05,10,0)" xlink:href="#au"/><use transform="matrix(0.05,0,0,0.05,20,0)" xlink:href="#K"/></g><path d="M233-177c-1 41-23 64-60 70L243 0h-38l-65-103H63V0H30v-248c88 3 205-21 203 71zM63-129c60-2 137 13 137-47 0-61-80-42-137-45v92" id="av"/><g id="D"><use transform="matrix(0.05,0,0,0.05,0,0)" xlink:href="#av"/><use transform="matrix(0.05,0,0,0.05,12.950000000000001,0)" xlink:href="#N"/><use transform="matrix(0.05,0,0,0.05,22.950000000000003,0)" xlink:href="#P"/><use transform="matrix(0.05,0,0,0.05,32.95,0)" xlink:href="#V"/><use transform="matrix(0.05,0,0,0.05,41.95,0)" xlink:href="#aa"/><use transform="matrix(0.05,0,0,0.05,46.95,0)" xlink:href="#W"/><use transform="matrix(0.05,0,0,0.05,56.95,0)" xlink:href="#ag"/></g><g id="E"><use transform="matrix(0.05,0,0,0.05,0,0)" xlink:href="#O"/><use transform="matrix(0.05,0,0,0.05,12.950000000000001,0)" xlink:href="#W"/><use transform="matrix(0.05,0,0,0.05,22.950000000000003,0)" xlink:href="#S"/><use transform="matrix(0.05,0,0,0.05,32.95,0)" xlink:href="#aa"/><use transform="matrix(0.05,0,0,0.05,37.95,0)" xlink:href="#ag"/><use transform="matrix(0.05,0,0,0.05,43.900000000000006,0)" xlink:href="#W"/><use transform="matrix(0.05,0,0,0.05,53.900000000000006,0)" xlink:href="#Z"/><use transform="matrix(0.05,0,0,0.05,57.85,0)" xlink:href="#ac"/></g><g id="F"><use transform="matrix(0.05,0,0,0.05,0,0)" xlink:href="#av"/><use transform="matrix(0.05,0,0,0.05,12.950000000000001,0)" xlink:href="#W"/><use transform="matrix(0.05,0,0,0.05,22.950000000000003,0)" xlink:href="#W"/><use transform="matrix(0.05,0,0,0.05,32.95,0)" xlink:href="#ae"/></g><path d="M232-93c-1 65-40 97-104 97C67 4 28-28 28-90v-158h33c8 89-33 224 67 224 102 0 64-133 71-224h33v155" id="aw"/><g id="G"><use transform="matrix(0.05,0,0,0.05,0,0)" xlink:href="#aw"/><use transform="matrix(0.05,0,0,0.05,12.950000000000001,0)" xlink:href="#af"/></g><path d="M30-248c118-7 216 8 213 122C240-48 200 0 122 0H30v-248zM63-27c89 8 146-16 146-99s-60-101-146-95v194" id="ax"/><g id="H"><use transform="matrix(0.05,0,0,0.05,0,0)" xlink:href="#ax"/><use transform="matrix(0.05,0,0,0.05,12.950000000000001,0)" xlink:href="#W"/><use transform="matrix(0.05,0,0,0.05,22.950000000000003,0)" xlink:href="#ap"/><use transform="matrix(0.05,0,0,0.05,35.900000000000006,0)" xlink:href="#S"/></g></defs></g></svg>